# xmcd
#
# Track frame offsets:
#	150
#	19685
#	39884
#	60473
#	79607
#	97432
#	118252
#	134118
#	149778
#	167430
#	187426
#	200374
#	216700
#	230936
#	249460
#	264906
#	283747
#	297640
#	311920
#	330601
#	349814
#
# Disc length: 4910 seconds
#
# Revision: 1
# Processed by: cddbd v1.5.2PL0 Copyright (c) Steve Scherf et al.
# Submitted via: audiograbber 1.83.01
#
DISCID=65132c15
DTITLE=Orchester Klaus Hallen - Best Of 90s Chart-Hits Welttanztag 2010
DYEAR=2010
DGENRE=Ballroom
TTITLE0=I Need You (Langs. Walzer)
TTITLE1=Candle In The Wind (Langs. Walzer)
TTITLE2=When You Believe (Langs. Walzer)
TTITLE3=Gotham City (Langs. Walzer)
TTITLE4=I Don't Want To (Langs. Walzer)
TTITLE5=I'm Your Angel (Langs. Walzer)
TTITLE6=Unbreak My Heart (Tango 32)
TTITLE7=Golden Child (Tango 32)
TTITLE8=Believe (Tango 32)
TTITLE9=Hijo De La Luna (Wiener Walzer 58)
TTITLE10=Nomansland (Wiener Walzer 58)
TTITLE11=Time To Say Goodbye (Wiener Walzer 58)
TTITLE12=The Rapsody (Wiener Walzer 60)
TTITLE13=Have You Ever (Slowfox 29)
TTITLE14=Everything's Gonna Be Alright (Slowfox 29)
TTITLE15=Gibt's Doch Garnicht (Quickstep 48)
TTITLE16=Ain't That Just The Way (Quickstep 49)
TTITLE17=Stranded (Quickstep 49)
TTITLE18=Darlin' I Think About You (Discofox 31)
TTITLE19=You Won't Forget Me (Discofox 32)
TTITLE20=Da Beat Goes (Discofox 32)
EXTD=
EXTT0=
EXTT1=
EXTT2=
EXTT3=
EXTT4=
EXTT5=
EXTT6=
EXTT7=
EXTT8=
EXTT9=
EXTT10=
EXTT11=
EXTT12=
EXTT13=
EXTT14=
EXTT15=
EXTT16=
EXTT17=
EXTT18=
EXTT19=
EXTT20=
PLAYORDER=
